<svg width="378" height="392" viewBox="0 0 378 392" fill="none" xmlns="http://www.w3.org/2000/svg">
<ellipse cx="189" cy="196" rx="189" ry="196" fill="url(#paint0_linear_656_1055)"/>
<path d="M104.365 75.3381C96.457 77.9317 93.5361 90.0501 98.9505 97.6073C100.874 100.246 103.118 101.498 106.395 101.677C108.711 101.811 109.423 101.677 111.026 100.782C113.733 99.1724 115.051 97.6073 116.298 94.4324C117.937 90.2737 117.83 85.2206 115.978 81.5091C113.662 76.769 108.426 73.9965 104.365 75.3381Z" fill="white"/>
<path d="M180.238 75.3381C176.997 76.3666 174.361 79.0496 172.9 82.8059C171.725 85.8467 171.725 90.7209 172.9 94.0747C173.969 97.0707 176.605 100.112 179.063 101.14C181.414 102.124 185.368 101.811 187.398 100.514C195.128 95.5504 195.128 81.2408 187.434 76.5007C185.439 75.2934 182.019 74.7568 180.238 75.3381Z" fill="white"/>
<path d="M216.928 75.3381C210.303 77.5292 206.812 86.741 209.733 94.2982C210.944 97.2943 213.331 100.111 215.575 101.051C216.501 101.453 218.318 101.766 219.6 101.766C223.981 101.766 228.078 98.1886 229.467 93.0909C231.783 84.5946 227.223 75.7405 220.206 75.1592C218.994 75.0697 217.534 75.1145 216.928 75.3381Z" fill="white"/>
<path d="M268.829 75.7405C265.516 77.2609 262.844 80.7041 261.954 84.684C261.384 87.3223 261.704 92.1518 262.666 94.4771C264.412 98.8147 267.511 101.364 271.465 101.677C274.777 101.945 277.093 101.006 279.373 98.4122C281.795 95.6845 282.792 92.6884 282.828 88.3508C282.828 84.4157 281.937 81.6432 279.8 78.9602C276.986 75.4275 272.462 74.1307 268.829 75.7405Z" fill="white"/>
<path d="M101.266 115.628C90.9358 117.82 83.954 126.003 81.1399 139.239C80.2137 143.532 80.1781 143.711 80.0356 163.476C79.9644 174.387 80 184.18 80.1425 185.253C80.8549 191.201 87.4449 193.705 91.1139 189.457C92.8593 187.445 92.9662 186.953 93.1443 177.786L93.3224 169.066H106.858H120.395L120.573 178.099C120.751 186.371 120.822 187.221 121.499 188.384C122.781 190.53 124.384 191.424 126.985 191.424C129.692 191.38 131.152 190.575 132.399 188.428L133.218 186.953V165.041C133.218 143.711 133.183 143.04 132.399 139.329C130.084 128.328 124.812 120.592 117.509 117.372C112.879 115.36 106.039 114.645 101.266 115.628ZM111.418 131.279C116.975 133.426 119.967 139.776 120.288 150.061L120.395 153.862L106.716 153.996L93.0374 154.085L93.2511 149.748C93.5361 144.739 94.0704 141.878 95.3884 138.658C96.3502 136.243 98.7368 133.158 100.589 131.995C103.296 130.206 107.892 129.893 111.418 131.279Z" fill="white"/>
<path d="M261.055 256.535C258.356 236.986 248.278 223.774 231.976 218.449C226.689 216.696 226.469 216.629 202.126 216.359C188.688 216.225 176.627 216.292 175.305 216.562C167.98 217.91 164.896 230.38 170.128 237.323C172.606 240.626 173.212 240.829 184.502 241.166L195.242 241.503V266.848V292.733L184.117 293.07C173.928 293.407 172.882 293.542 171.45 294.823C168.806 297.249 167.705 300.283 167.705 305.204C167.76 310.327 168.751 313.09 171.395 315.45L173.212 317H200.198C226.469 317 227.295 316.933 231.866 315.45C245.414 311.068 254.942 301.092 258.907 287.273C261.385 278.51 262.266 265.567 261.055 256.535ZM216.704 285.338C216.051 292.967 212.131 291.442 209.844 292.733H204.944V266.848V241.166H207.231C207.231 241.166 212.415 242.31 214.744 244.902C217.357 251.387 217.357 263.033 217.357 266.848C217.357 273.333 217.354 277.746 216.704 285.338Z" fill="white"/>
<path d="M178.351 116.076C174.717 117.283 171.796 119.385 169.695 122.247C167.593 125.108 166.489 127.702 165.384 132.263C164.601 135.438 164.601 136.154 164.458 160.659C164.351 185.164 164.351 185.835 165.064 187.534C166.845 191.961 172.509 192.989 175.536 189.457C176.106 188.831 176.748 187.892 176.961 187.4C177.282 186.774 177.424 179.619 177.567 162.582L177.745 138.658L178.707 136.109C179.384 134.276 180.06 133.202 181.165 132.308C182.518 131.19 182.981 131.056 185.546 131.056C189.963 131.056 191.993 132.755 193.49 137.629C194.024 139.329 194.131 142.369 194.309 163.029C194.487 185.477 194.523 186.55 195.199 187.981C196.375 190.441 198.014 191.424 200.899 191.424C202.894 191.424 203.677 191.201 204.746 190.396C207.382 188.294 207.275 189.278 207.489 163.029C207.703 137.764 207.703 137.808 209.662 134.365C211.835 130.519 218.318 129.67 221.31 132.845C221.88 133.471 222.735 134.991 223.198 136.288L224.053 138.658L224.231 162.671C224.409 186.148 224.409 186.684 225.157 187.936C228.114 192.945 234.561 192.766 236.77 187.623C237.411 186.148 237.411 184.851 237.304 160.793C237.197 138.166 237.126 135.259 236.556 132.845C233.706 120.816 227.365 115.181 216.608 115.181C210.196 115.181 206.349 116.925 202.858 121.397L200.899 123.901L198.94 121.397C195.413 116.881 191.602 115.181 185.047 115.226C182.198 115.226 180.167 115.494 178.351 116.076Z" fill="white"/>
<path d="M265.908 115.852C255.684 118.58 249.486 126.092 246.601 139.105C245.853 142.548 245.817 143.622 245.675 164.236C245.568 185.164 245.568 185.835 246.28 187.534C248.738 193.571 256.931 192.542 258.392 186.058C258.605 185.075 258.784 180.782 258.784 176.534V168.842H272.32H285.856V176.757C285.856 185.566 286.105 187.355 287.53 189.099C291.413 193.75 298.109 191.469 298.858 185.298C299 184.225 299.036 174.387 298.964 163.476C298.822 143.711 298.786 143.532 297.86 139.239C295.331 127.389 289.525 119.653 280.869 116.523C277.413 115.271 269.363 114.913 265.908 115.852ZM278.019 131.771C280.726 133.337 282.329 135.215 283.683 138.39C285.072 141.699 285.856 145.992 285.856 150.597V154.085H272.32H258.784V150.374C258.784 142.235 261.135 135.662 265.053 132.8C267.653 130.877 269.363 130.385 272.854 130.519C275.383 130.609 276.487 130.877 278.019 131.771Z" fill="white"/>
<path d="M145.686 116.254C144.261 117.015 142.765 119.251 142.302 121.352C142.017 122.47 141.946 132.889 142.017 154.533C142.124 185.03 142.159 186.103 142.836 187.534C143.228 188.339 144.154 189.546 144.938 190.217C146.933 191.961 150.103 191.961 152.204 190.172C153.024 189.502 154.021 188.16 154.413 187.176C155.125 185.477 155.125 184.627 155.125 153.504V121.576L154.306 119.653C152.846 116.165 148.749 114.555 145.686 116.254Z" fill="white"/>
<path d="M132.135 217.181C128.693 218.174 125.079 221.095 123.961 223.84C123.273 225.301 123.1 238.911 123.273 267.182C123.531 307.02 123.617 308.422 125.251 310.291C126.198 311.342 128.435 312.919 130.328 313.796C135.146 316.074 142.803 316.074 147.88 313.737C149.858 312.861 152.268 311.109 153.214 309.824C154.935 307.604 154.935 306.494 154.935 265.839V224.132L152.956 221.621C149.428 217.065 139.534 214.962 132.135 217.181Z" fill="white"/>
<path d="M175.892 222.402C172.45 223.35 168.837 226.138 167.718 228.758C167.03 230.152 166.858 243.144 167.03 270.13C167.288 308.157 167.374 309.495 169.009 311.279C169.955 312.283 172.192 313.788 174.085 314.624C178.903 316.799 186.561 316.799 191.637 314.569C193.616 313.732 196.025 312.06 196.971 310.833C198.692 308.714 198.692 307.655 198.692 268.848V229.037L196.713 226.639C193.186 222.29 183.291 220.283 175.892 222.402Z" fill="white"/>
<defs>
<linearGradient id="paint0_linear_656_1055" x1="190.303" y1="-64.9895" x2="215.65" y2="440.208" gradientUnits="userSpaceOnUse">
<stop stop-color="#D964C5"/>
<stop offset="1" stop-color="#1366AB"/>
</linearGradient>
</defs>
</svg>
